<svg xmlns="http://www.w3.org/2000/svg" viewBox="0 0 900 1600" role="img" aria-labelledby="title desc">
  <title id="title">Wedding Photo Placeholder</title>
  <desc id="desc">Placeholder artwork for the wedding photo in the anniversary slideshow.</desc>
  <defs>
    <linearGradient id="bg" x1="0" x2="1" y1="0" y2="1">
      <stop offset="0%" stop-color="#7a3217"/>
      <stop offset="55%" stop-color="#c8793b"/>
      <stop offset="100%" stop-color="#3d1208"/>
    </linearGradient>
    <radialGradient id="glow" cx="50%" cy="35%" r="48%">
      <stop offset="0%" stop-color="#ffe3a8" stop-opacity=".95"/>
      <stop offset="100%" stop-color="#ffe3a8" stop-opacity="0"/>
    </radialGradient>
  </defs>
  <rect width="900" height="1600" fill="url(#bg)"/>
  <rect width="900" height="1600" fill="url(#glow)"/>
  <circle cx="450" cy="470" r="170" fill="#f6d39e" fill-opacity=".22"/>
  <g fill="#fff2d4" fill-opacity=".86" font-family="Georgia, serif" text-anchor="middle">
    <text x="450" y="240" font-size="70" letter-spacing="12">WEDDING PHOTO</text>
    <text x="450" y="1250" font-size="40" letter-spacing="8">Replace this file with your real memory</text>
  </g>
  <g transform="translate(450 760)">
    <path d="M-130 130c-84 0-152-68-152-152s68-152 152-152c57 0 106 31 132 77 26-46 75-77 132-77 84 0 152 68 152 152s-68 152-152 152c-52 0-98-26-126-66-28 40-74 66-126 66Z" fill="#fff0d0" fill-opacity=".2"/>
    <path d="M-135 18c0-104 84-188 188-188S241-86 241 18c0 177-188 269-188 269S-135 195-135 18Z" fill="none" stroke="#fff1cf" stroke-opacity=".55" stroke-width="10"/>
  </g>
</svg>
